{
	"asset":{
		"generator":"Khronos glTF Blender I/O v5.2.40",
		"version":"2.0"
	},
	"scene":0,
	"scenes":[
		{
			"name":"Scene",
			"nodes":[
				62
			]
		}
	],
	"nodes":[
		{
			"name":"IKLeg.Pole.L",
			"rotation":[
				0.7067340016365051,
				0.022958803921937943,
				0.022958803921937943,
				0.7067340016365051
			],
			"scale":[
				0.9999999403953552,
				1,
				0.9999999403953552
			],
			"translation":[
				0.17292222380638123,
				-0.28309059143066406,
				0.5523544549942017
			]
		},
		{
			"name":"IKLeg.Pole.R",
			"rotation":[
				0.7067340016365051,
				-0.022958803921937943,
				-0.022958803921937943,
				0.7067340016365051
			],
			"scale":[
				0.9999999403953552,
				1,
				0.9999999403953552
			],
			"translation":[
				-0.17286472022533417,
				-0.28309059143066406,
				0.5523544549942017
			]
		},
		{
			"name":"IKLeg.Target.L",
			"rotation":[
				-0.7070329785346985,
				-0.010219916701316833,
				0.010219916701316833,
				0.7070329189300537
			],
			"translation":[
				0.15457160770893097,
				-0.9191038012504578,
				-0.11691366136074066
			]
		},
		{
			"name":"IKLeg.Target.R",
			"rotation":[
				-0.7070329785346985,
				0.010219916701316833,
				-0.010219916701316833,
				0.7070329189300537
			],
			"translation":[
				-0.15457160770893097,
				-0.9191038012504578,
				-0.11691366136074066
			]
		},
		{
			"name":"Head",
			"rotation":[
				0.00014755431038793176,
				0.9982292652130127,
				-0.05943267419934273,
				0.002478336915373802
			],
			"scale":[
				1,
				0.9999999403953552,
				1.0000001192092896
			],
			"translation":[
				2.1827872842550278e-10,
				0.16727302968502045,
				-2.5026338335010223e-08
			]
		},
		{
			"children":[
				4
			],
			"name":"Upper neck",
			"rotation":[
				0.003660223912447691,
				0.9934352040290833,
				-0.10939978063106537,
				0.03323766961693764
			],
			"scale":[
				0.9999998211860657,
				0.9999993443489075,
				0.9999998807907104
			],
			"translation":[
				-7.8580342233181e-10,
				0.3376382887363434,
				1.1526935850270092e-08
			]
		},
		{
			"name":"f_index.03.L",
			"rotation":[
				0.07772848755121231,
				-0.01911863684654236,
				0.0014908341690897942,
				0.9967901706695557
			],
			"scale":[
				0.9999999403953552,
				0.9999999403953552,
				1
			],
			"translation":[
				7.450580596923828e-09,
				0.05944018065929413,
				-4.284083843231201e-08
			]
		},
		{
			"children":[
				6
			],
			"name":"f_index.02.L",
			"rotation":[
				0.03159395605325699,
				0.9406018853187561,
				-0.08958561718463898,
				0.32595160603523254
			],
			"scale":[
				1,
				1.0000001192092896,
				1.0000001192092896
			],
			"translation":[
				-1.862645149230957e-08,
				0.03785352408885956,
				4.0978193283081055e-08
			]
		},
		{
			"children":[
				7
			],
			"name":"f_index.01.L",
			"rotation":[
				0.05655532702803612,
				-0.7094256281852722,
				0.06176476553082466,
				0.6997870802879333
			],
			"scale":[
				1,
				0.9999998211860657,
				0.9999998211860657
			],
			"translation":[
				-7.450580596923828e-09,
				0.07834998518228531,
				-2.60770320892334e-08
			]
		},
		{
			"children":[
				8
			],
			"name":"palm.01.L",
			"rotation":[
				0.03568737208843231,
				-0.9218370318412781,
				0.05142930895090103,
				0.38248926401138306
			],
			"translation":[
				-0.0011358093470335007,
				0.08655089139938354,
				-0.051490288227796555
			]
		},
		{
			"name":"f_middle.03.L",
			"rotation":[
				0.09961157292127609,
				0.1221921294927597,
				0.027792109176516533,
				0.9871039390563965
			],
			"scale":[
				1,
				0.9999999403953552,
				1
			],
			"translation":[
				3.725290298461914e-09,
				0.05533638969063759,
				1.6530975699424744e-08
			]
		},
		{
			"children":[
				10
			],
			"name":"f_middle.02.L",
			"rotation":[
				0.01587633788585663,
				0.09782963246107101,
				-0.04793602228164673,
				0.9939212799072266
			],
			"scale":[
				1,
				1,
				0.9999999403953552
			],
			"translation":[
				-4.6566128730773926e-09,
				0.054085832089185715,
				2.0721927285194397e-08
			]
		},
		{
			"children":[
				11
			],
			"name":"f_middle.01.L",
			"rotation":[
				0.12085355073213577,
				-0.8253625631332397,
				0.04263477027416229,
				0.5498666763305664
			],
			"scale":[
				1.0000001192092896,
				1,
				0.9999999403953552
			],
			"translation":[
				-1.210719347000122e-08,
				0.08033084869384766,
				0
			]
		},
		{
			"children":[
				12
			],
			"name":"palm.02.L",
			"rotation":[
				-0.04725115746259689,
				0.08252699673175812,
				-0.015711942687630653,
				0.9953440427780151
			],
			"scale":[
				1.0000001192092896,
				1,
				1
			],
			"translation":[
				0.00326130841858685,
				0.08808153122663498,
				-0.01658090390264988
			]
		},
		{
			"name":"f_ring.03.L",
			"rotation":[
				0.16090381145477295,
				0.1041228249669075,
				-0.04230516403913498,
				0.9805501699447632
			],
			"scale":[
				1.0000001192092896,
				1,
				1
			],
			"translation":[
				1.862645149230957e-09,
				0.05432726815342903,
				-3.14321368932724e-09
			]
		},
		{
			"children":[
				14
			],
			"name":"f_ring.02.L",
			"rotation":[
				0.1821689009666443,
				-0.20770923793315887,
				0.09260973334312439,
				0.9566059112548828
			],
			"scale":[
				0.9999998211860657,
				0.9999999403953552,
				0.9999999403953552
			],
			"translation":[
				-4.0978193283081055e-08,
				0.0454285554587841,
				8.847564458847046e-09
			]
		},
		{
			"children":[
				15
			],
			"name":"f_ring.01.L",
			"rotation":[
				0.13510799407958984,
				-0.571459174156189,
				-0.01055664662271738,
				0.8093632459640503
			],
			"scale":[
				0.9999999403953552,
				1,
				1
			],
			"translation":[
				3.16067598760128e-08,
				0.08271315693855286,
				-9.080395102500916e-09
			]
		},
		{
			"children":[
				16
			],
			"name":"palm.03.L",
			"rotation":[
				-0.033668555319309235,
				0.050269052386283875,
				-0.013307033106684685,
				0.9980793595314026
			],
			"scale":[
				1,
				0.9999999403953552,
				0.9999999403953552
			],
			"translation":[
				0.008839995600283146,
				0.08770351111888885,
				0.021983284503221512
			]
		},
		{
			"name":"f_pinky.03.L",
			"rotation":[
				0.11055891215801239,
				0.05153718218207359,
				-0.005740847904235125,
				0.9925158619880676
			],
			"scale":[
				0.9999998807907104,
				0.9999999403953552,
				0.9999999403953552
			],
			"translation":[
				5.587935447692871e-09,
				0.056716907769441605,
				2.6513589546084404e-08
			]
		},
		{
			"children":[
				18
			],
			"name":"f_pinky.02.L",
			"rotation":[
				0.2695753574371338,
				-0.07959991693496704,
				0.028790481388568878,
				0.9592518210411072
			],
			"scale":[
				1,
				1,
				0.9999999403953552
			],
			"translation":[
				2.2351741790771484e-08,
				0.041805438697338104,
				9.313225746154785e-09
			]
		},
		{
			"children":[
				19
			],
			"name":"f_pinky.01.L",
			"rotation":[
				0.04369128495454788,
				-0.8348957300186157,
				0.049204688519239426,
				0.5464605093002319
			],
			"scale":[
				1,
				0.9999999403953552,
				0.9999999403953552
			],
			"translation":[
				7.450580596923828e-09,
				0.062414880841970444,
				6.332993507385254e-08
			]
		},
		{
			"children":[
				20
			],
			"name":"palm.04.L",
			"rotation":[
				0.05796937271952629,
				0.24875064194202423,
				0.0007577831274829805,
				0.9668309688568115
			],
			"scale":[
				1,
				1.0000001192092896,
				0.9999999403953552
			],
			"translation":[
				0.016746925190091133,
				0.08614719659090042,
				0.04562704637646675
			]
		},
		{
			"name":"thumb.03.L",
			"rotation":[
				0.11935794353485107,
				-0.015170319937169552,
				-0.01150928158313036,
				0.9926686882972717
			],
			"scale":[
				0.9999999403953552,
				0.9999999403953552,
				0.9999998807907104
			],
			"translation":[
				2.3283064365386963e-08,
				0.06090182811021805,
				1.30385160446167e-08
			]
		},
		{
			"children":[
				22
			],
			"name":"thumb.02.L",
			"rotation":[
				0.10044518858194351,
				0.973656177520752,
				-0.1565868854522705,
				0.13185180723667145
			],
			"scale":[
				1.0000001192092896,
				0.9999998807907104,
				1
			],
			"translation":[
				-6.51925802230835e-09,
				0.05286905914545059,
				-3.725290298461914e-09
			]
		},
		{
			"children":[
				23
			],
			"name":"thumb.01.L",
			"rotation":[
				0.04414794221520424,
				-0.9309192299842834,
				0.36250558495521545,
				0.005481049884110689
			],
			"scale":[
				0.9999999403953552,
				1.0000001192092896,
				1
			],
			"translation":[
				-0.013638991862535477,
				0.02880091778934002,
				-0.04039998725056648
			]
		},
		{
			"children":[
				9,
				13,
				17,
				21,
				24
			],
			"name":"hand.L",
			"rotation":[
				0.025838466361165047,
				0.9698475003242493,
				-0.13413257896900177,
				0.20183323323726654
			],
			"scale":[
				0.9999998807907104,
				1,
				0.9999999403953552
			],
			"translation":[
				6.6356733441352844e-09,
				0.3866637349128723,
				-1.4901161193847656e-08
			]
		},
		{
			"children":[
				25
			],
			"name":"forearm.L",
			"rotation":[
				0.25853806734085083,
				-0.1673099398612976,
				0.03999427706003189,
				0.9505608081817627
			],
			"scale":[
				0.9999999403953552,
				1,
				1
			],
			"translation":[
				-4.470348358154297e-08,
				0.36176052689552307,
				-9.685754776000977e-08
			]
		},
		{
			"children":[
				26
			],
			"name":"upper_arm.L",
			"rotation":[
				0.8746248483657837,
				-0.09062229841947556,
				0.4484816789627075,
				0.1602596789598465
			],
			"scale":[
				1.0000011920928955,
				1.0000001192092896,
				1.0000003576278687
			],
			"translation":[
				-0.2535800039768219,
				0.3162975311279297,
				0.005802895873785019
			]
		},
		{
			"name":"f_index.03.R",
			"rotation":[
				0.07772847265005112,
				0.019118698313832283,
				-0.0014907970326021314,
				0.9967901706695557
			],
			"scale":[
				0.9999999403953552,
				1,
				0.9999999403953552
			],
			"translation":[
				-2.2351741790771484e-08,
				0.059440113604068756,
				-4.842877388000488e-08
			]
		},
		{
			"children":[
				28
			],
			"name":"f_index.02.R",
			"rotation":[
				0.031593844294548035,
				-0.940601646900177,
				0.089586541056633,
				0.32595202326774597
			],
			"scale":[
				0.9999999403953552,
				1.0000003576278687,
				0.9999999403953552
			],
			"translation":[
				-2.9802322387695312e-08,
				0.03785344958305359,
				-1.4901161193847656e-08
			]
		},
		{
			"children":[
				29
			],
			"name":"f_index.01.R",
			"rotation":[
				0.056556086987257004,
				0.709424614906311,
				-0.061766013503074646,
				0.6997879147529602
			],
			"scale":[
				0.9999999403953552,
				0.9999998211860657,
				0.9999998807907104
			],
			"translation":[
				7.450580596923828e-09,
				0.0783500000834465,
				-3.725290298461914e-08
			]
		},
		{
			"children":[
				30
			],
			"name":"palm.01.R",
			"rotation":[
				0.03568785637617111,
				0.9218370318412781,
				-0.051429297775030136,
				0.38248902559280396
			],
			"scale":[
				1,
				0.9999997615814209,
				1
			],
			"translation":[
				0.0011356575414538383,
				0.08655097335577011,
				-0.05149034783244133
			]
		},
		{
			"name":"f_middle.03.R",
			"rotation":[
				0.09961153566837311,
				-0.12219226360321045,
				-0.027792105451226234,
				0.9871039390563965
			],
			"scale":[
				1.0000001192092896,
				0.9999998807907104,
				1.0000001192092896
			],
			"translation":[
				-3.725290298461914e-09,
				0.05533652752637863,
				-5.774199962615967e-08
			]
		},
		{
			"children":[
				32
			],
			"name":"f_middle.02.R",
			"rotation":[
				0.01587633416056633,
				-0.09782985597848892,
				0.04793606325984001,
				0.9939212799072266
			],
			"scale":[
				0.9999998807907104,
				0.9999999403953552,
				0.9999998211860657
			],
			"translation":[
				-7.450580596923828e-09,
				0.05408598110079765,
				-1.7229467630386353e-08
			]
		},
		{
			"children":[
				33
			],
			"name":"f_middle.01.R",
			"rotation":[
				0.12085322290658951,
				0.8253623843193054,
				-0.04263447970151901,
				0.5498670339584351
			],
			"scale":[
				0.9999998807907104,
				1.0000001192092896,
				1
			],
			"translation":[
				2.1420419216156006e-08,
				0.08033084124326706,
				-1.3969838619232178e-08
			]
		},
		{
			"children":[
				34
			],
			"name":"palm.02.R",
			"rotation":[
				-0.04725104570388794,
				-0.08252671360969543,
				0.015711499378085136,
				0.9953440427780151
			],
			"scale":[
				1,
				0.9999998807907104,
				1
			],
			"translation":[
				-0.0032614408992230892,
				0.0880817398428917,
				-0.016580943018198013
			]
		},
		{
			"name":"f_ring.03.R",
			"rotation":[
				0.16090373694896698,
				-0.10412263870239258,
				0.042305197566747665,
				0.980550229549408
			],
			"scale":[
				1,
				1.0000001192092896,
				1.0000001192092896
			],
			"translation":[
				-9.313225746154785e-10,
				0.05432732030749321,
				-3.958120942115784e-09
			]
		},
		{
			"children":[
				36
			],
			"name":"f_ring.02.R",
			"rotation":[
				0.18216881155967712,
				0.20770880579948425,
				-0.09260976314544678,
				0.9566059708595276
			],
			"scale":[
				1.0000001192092896,
				1,
				1
			],
			"translation":[
				1.30385160446167e-08,
				0.0454285629093647,
				4.516914486885071e-08
			]
		},
		{
			"children":[
				37
			],
			"name":"f_ring.01.R",
			"rotation":[
				0.13510814309120178,
				0.571459174156189,
				0.010556724853813648,
				0.8093632459640503
			],
			"scale":[
				0.9999999403953552,
				1,
				0.9999999403953552
			],
			"translation":[
				7.799826562404633e-09,
				0.08271295577287674,
				-4.6566128730773926e-09
			]
		},
		{
			"children":[
				38
			],
			"name":"palm.03.R",
			"rotation":[
				-0.033668581396341324,
				-0.05026918649673462,
				0.013307031244039536,
				0.9980793595314026
			],
			"scale":[
				1,
				0.9999997615814209,
				0.9999998807907104
			],
			"translation":[
				-0.008840073831379414,
				0.0877036526799202,
				0.021983304992318153
			]
		},
		{
			"name":"f_pinky.03.R",
			"rotation":[
				0.11055896431207657,
				-0.051537055522203445,
				0.005740843713283539,
				0.9925158619880676
			],
			"scale":[
				1,
				1,
				0.9999999403953552
			],
			"translation":[
				3.725290298461914e-09,
				0.05671705678105354,
				5.7436409406363964e-08
			]
		},
		{
			"children":[
				40
			],
			"name":"f_pinky.02.R",
			"rotation":[
				0.26957523822784424,
				0.07959947735071182,
				-0.02879040688276291,
				0.9592519402503967
			],
			"scale":[
				1,
				0.9999998211860657,
				0.9999999403953552
			],
			"translation":[
				-3.725290298461914e-09,
				0.04180549085140228,
				-6.51925802230835e-09
			]
		},
		{
			"children":[
				41
			],
			"name":"f_pinky.01.R",
			"rotation":[
				0.04369136691093445,
				0.8348957896232605,
				-0.04920462518930435,
				0.5464603900909424
			],
			"scale":[
				1,
				0.9999998807907104,
				0.9999998807907104
			],
			"translation":[
				4.6566128730773926e-08,
				0.06241490691900253,
				0
			]
		},
		{
			"children":[
				42
			],
			"name":"palm.04.R",
			"rotation":[
				0.05796937271952629,
				-0.24875076115131378,
				-0.0007577629294246435,
				0.9668309092521667
			],
			"scale":[
				1,
				1,
				0.9999998211860657
			],
			"translation":[
				-0.01674700900912285,
				0.08614740520715714,
				0.04562709107995033
			]
		},
		{
			"name":"thumb.03.R",
			"rotation":[
				0.11935760825872421,
				0.015169508755207062,
				0.01150973979383707,
				0.9926687479019165
			],
			"scale":[
				0.9999999403953552,
				0.9999998807907104,
				1
			],
			"translation":[
				-2.8870999813079834e-08,
				0.06090192869305611,
				1.4901161193847656e-08
			]
		},
		{
			"children":[
				44
			],
			"name":"thumb.02.R",
			"rotation":[
				0.10044438391923904,
				-0.9736564755439758,
				0.1565866768360138,
				0.131850928068161
			],
			"scale":[
				1,
				1.000000238418579,
				1
			],
			"translation":[
				-1.4901161193847656e-08,
				0.05286908149719238,
				2.60770320892334e-08
			]
		},
		{
			"children":[
				45
			],
			"name":"thumb.01.R",
			"rotation":[
				0.04414898902177811,
				0.9309192895889282,
				-0.36250531673431396,
				0.005480374675244093
			],
			"scale":[
				0.9999999403953552,
				0.9999997615814209,
				0.9999999403953552
			],
			"translation":[
				0.013638833537697792,
				0.028801007196307182,
				-0.04040004312992096
			]
		},
		{
			"children":[
				31,
				35,
				39,
				43,
				46
			],
			"name":"hand.R",
			"rotation":[
				0.025838511064648628,
				-0.9698474407196045,
				0.1341327279806137,
				0.20183338224887848
			],
			"scale":[
				1,
				0.9999999403953552,
				0.9999999403953552
			],
			"translation":[
				5.820766091346741e-09,
				0.38666391372680664,
				9.19681042432785e-09
			]
		},
		{
			"children":[
				47
			],
			"name":"forearm.R",
			"rotation":[
				0.2585381865501404,
				0.1673099249601364,
				-0.03999433293938637,
				0.9505608081817627
			],
			"scale":[
				0.9999998807907104,
				0.9999998211860657,
				0.9999998807907104
			],
			"translation":[
				7.450580596923828e-09,
				0.3617604970932007,
				-7.450580596923828e-08
			]
		},
		{
			"children":[
				48
			],
			"name":"upper_arm.R",
			"rotation":[
				0.905201256275177,
				0.07968463748693466,
				-0.3825487494468689,
				0.16708524525165558
			],
			"scale":[
				1.000000238418579,
				1.0000001192092896,
				1.000000238418579
			],
			"translation":[
				0.24921037256717682,
				0.31694796681404114,
				0.042985349893569946
			]
		},
		{
			"children":[
				5,
				27,
				49
			],
			"name":"spine.001",
			"rotation":[
				0.041077565401792526,
				0.057285454124212265,
				-0.00235903006978333,
				0.9975095987319946
			],
			"scale":[
				1,
				0.9999998211860657,
				1
			],
			"translation":[
				-2.3283064365386963e-10,
				0.20630058646202087,
				-4.133653419557959e-10
			]
		},
		{
			"children":[
				50
			],
			"name":"spine",
			"rotation":[
				0.02443297579884529,
				-0.9747918844223022,
				0.13589495420455933,
				0.17526094615459442
			],
			"scale":[
				0.9999998807907104,
				0.9999997615814209,
				0.9999999403953552
			],
			"translation":[
				5.820766091346741e-10,
				0.14867259562015533,
				2.0081643015146255e-08
			]
		},
		{
			"name":"toe.L",
			"rotation":[
				0.09194400906562805,
				-0.18168090283870697,
				0.017064502462744713,
				0.9789010286331177
			],
			"scale":[
				0.9999999403953552,
				1,
				0.9999998807907104
			],
			"translation":[
				1.0186340659856796e-08,
				0.1602480709552765,
				-4.1676685214042664e-08
			]
		},
		{
			"children":[
				52
			],
			"name":"foot.L",
			"rotation":[
				0.04325200617313385,
				0.7637381553649902,
				-0.6420171856880188,
				0.05145210027694702
			],
			"scale":[
				1.0000001192092896,
				0.9999993443489075,
				0.9999999403953552
			],
			"translation":[
				8.847564458847046e-09,
				0.5440016388893127,
				-3.725290298461914e-09
			]
		},
		{
			"children":[
				53
			],
			"name":"shin.L",
			"rotation":[
				0.04107833281159401,
				0.07328519970178604,
				-0.0030211491975933313,
				0.9964600801467896
			],
			"scale":[
				1,
				1,
				0.9999997615814209
			],
			"translation":[
				2.0489096641540527e-08,
				0.44193774461746216,
				-7.450580596923828e-09
			]
		},
		{
			"children":[
				54
			],
			"name":"thigh.L",
			"rotation":[
				0.9283418655395508,
				0.03693093731999397,
				-0.35721975564956665,
				0.095976322889328
			],
			"scale":[
				1.0000009536743164,
				1,
				1.000001311302185
			],
			"translation":[
				0.08656828850507736,
				0.1359066218137741,
				-0.027382485568523407
			]
		},
		{
			"name":"toe.R",
			"rotation":[
				0.09194584935903549,
				0.18168096244335175,
				-0.017064834013581276,
				0.9789008498191833
			],
			"scale":[
				1,
				0.9999998807907104,
				1.0000001192092896
			],
			"translation":[
				2.7997884899377823e-08,
				0.16024520993232727,
				-1.3329554349184036e-08
			]
		},
		{
			"children":[
				56
			],
			"name":"foot.R",
			"rotation":[
				0.04327835515141487,
				-0.7637379765510559,
				0.6420130133628845,
				0.05148400738835335
			],
			"scale":[
				0.9999999403953552,
				0.9999998211860657,
				1
			],
			"translation":[
				1.6763806343078613e-08,
				0.5440018773078918,
				1.210719347000122e-08
			]
		},
		{
			"children":[
				57
			],
			"name":"shin.R",
			"rotation":[
				0.040965840220451355,
				-0.10308477282524109,
				0.004249269608408213,
				0.9938195943832397
			],
			"scale":[
				0.9999999403953552,
				0.9999999403953552,
				0.9999999403953552
			],
			"translation":[
				-2.7939677238464355e-09,
				0.4419374465942383,
				6.51925802230835e-09
			]
		},
		{
			"children":[
				58
			],
			"name":"thigh.R",
			"rotation":[
				0.9944507479667664,
				-9.716391247138745e-09,
				-4.161642763733653e-08,
				0.10520315915346146
			],
			"scale":[
				0.9999999403953552,
				1,
				1.0000075101852417
			],
			"translation":[
				-0.07863130420446396,
				0.13709409534931183,
				0.04179845750331879
			]
		},
		{
			"children":[
				51,
				55,
				59
			],
			"name":"Root",
			"rotation":[
				0.12699663639068604,
				-0.19576990604400635,
				-0.022164637222886086,
				0.972139298915863
			],
			"scale":[
				1,
				1,
				1.0000001192092896
			],
			"translation":[
				2.876030521292705e-05,
				-0.07179856300354004,
				-0.0532655194401741
			]
		},
		{
			"mesh":0,
			"name":"Rigged Character",
			"skin":0
		},
		{
			"children":[
				61,
				0,
				1,
				2,
				3,
				60
			],
			"name":"Character Rig",
			"scale":[
				14.71685791015625,
				14.71685791015625,
				14.71685791015625
			],
			"translation":[
				0,
				14.335186004638672,
				0
			]
		}
	],
	"materials":[
		{
			"doubleSided":true,
			"name":"Merged_Group8123-002",
			"pbrMetallicRoughness":{
				"baseColorFactor":[
					0.5,
					0.5,
					0.5,
					1
				],
				"metallicFactor":0
			}
		}
	],
	"meshes":[
		{
			"name":"Merged_Group8123-002_Merged_Group8123-002_0.001",
			"primitives":[
				{
					"attributes":{
						"POSITION":0,
						"NORMAL":1,
						"COLOR_0":2,
						"JOINTS_0":3,
						"WEIGHTS_0":4
					},
					"indices":5,
					"material":0
				}
			]
		}
	],
	"skins":[
		{
			"inverseBindMatrices":6,
			"joints":[
				0,
				1,
				2,
				3,
				60,
				51,
				50,
				5,
				4,
				27,
				26,
				25,
				9,
				8,
				7,
				6,
				13,
				12,
				11,
				10,
				17,
				16,
				15,
				14,
				21,
				20,
				19,
				18,
				24,
				23,
				22,
				49,
				48,
				47,
				31,
				30,
				29,
				28,
				35,
				34,
				33,
				32,
				39,
				38,
				37,
				36,
				43,
				42,
				41,
				40,
				46,
				45,
				44,
				55,
				54,
				53,
				52,
				59,
				58,
				57,
				56
			],
			"name":"Character Rig"
		}
	],
	"accessors":[
		{
			"bufferView":0,
			"componentType":5126,
			"count":92781,
			"max":[
				6.659790992736816,
				28.68562889099121,
				1.8788763284683228
			],
			"min":[
				-6.6595540046691895,
				-0.19892649352550507,
				-3.337163209915161
			],
			"type":"VEC3"
		},
		{
			"bufferView":1,
			"componentType":5126,
			"count":92781,
			"type":"VEC3"
		},
		{
			"bufferView":2,
			"componentType":5126,
			"count":92781,
			"type":"VEC3"
		},
		{
			"bufferView":3,
			"componentType":5121,
			"count":92781,
			"type":"VEC4"
		},
		{
			"bufferView":4,
			"componentType":5126,
			"count":92781,
			"type":"VEC4"
		},
		{
			"bufferView":5,
			"componentType":5125,
			"count":554532,
			"type":"SCALAR"
		},
		{
			"bufferView":6,
			"componentType":5126,
			"count":61,
			"type":"MAT4"
		}
	],
	"bufferViews":[
		{
			"buffer":0,
			"byteLength":1113372,
			"byteOffset":0,
			"target":34962
		},
		{
			"buffer":0,
			"byteLength":1113372,
			"byteOffset":1113372,
			"target":34962
		},
		{
			"buffer":0,
			"byteLength":1113372,
			"byteOffset":2226744,
			"target":34962
		},
		{
			"buffer":0,
			"byteLength":371124,
			"byteOffset":3340116,
			"target":34962
		},
		{
			"buffer":0,
			"byteLength":1484496,
			"byteOffset":3711240,
			"target":34962
		},
		{
			"buffer":0,
			"byteLength":2218128,
			"byteOffset":5195736,
			"target":34963
		},
		{
			"buffer":0,
			"byteLength":3904,
			"byteOffset":7413864
		}
	],
	"buffers":[
		{
			"byteLength":7417768,
			"uri":"Rigged%20character.bin"
		}
	]
}
